<svg width="634" height="141" viewBox="0 0 634 141" fill="none" xmlns="http://www.w3.org/2000/svg">
<path d="M64 15.488V38.016H28.416V50.56H54.016V71.936H28.416V106.112H6.19888e-06V15.488H64ZM87.961 28.16C83.0117 28.16 79.0437 26.8373 76.057 24.192C73.0703 21.5467 71.577 18.2187 71.577 14.208C71.577 10.112 73.0703 6.74133 76.057 4.09599C79.0437 1.36533 83.0117 -7.62939e-06 87.961 -7.62939e-06C92.825 -7.62939e-06 96.7503 1.36533 99.737 4.09599C102.724 6.74133 104.217 10.112 104.217 14.208C104.217 18.2187 102.724 21.5467 99.737 24.192C96.7503 26.8373 92.825 28.16 87.961 28.16ZM102.041 33.92V106.112H73.625V33.92H102.041ZM111.035 70.016C111.035 62.4213 112.315 55.8507 114.875 50.304C117.52 44.672 121.104 40.4053 125.627 37.504C130.15 34.5173 135.227 33.024 140.859 33.024C145.552 33.024 149.563 34.0053 152.891 35.968C156.304 37.8453 158.907 40.448 160.699 43.776V11.392H189.115V106.112H160.699V96.256C158.907 99.584 156.304 102.229 152.891 104.192C149.563 106.069 145.552 107.008 140.859 107.008C135.227 107.008 130.15 105.557 125.627 102.656C121.104 99.6693 117.52 95.4027 114.875 89.856C112.315 84.224 111.035 77.6107 111.035 70.016ZM160.827 70.016C160.827 66.176 159.846 63.1893 157.883 61.056C155.92 58.9227 153.403 57.856 150.331 57.856C147.259 57.856 144.742 58.9227 142.779 61.056C140.816 63.1893 139.835 66.176 139.835 70.016C139.835 73.856 140.816 76.8427 142.779 78.976C144.742 81.1093 147.259 82.176 150.331 82.176C153.403 82.176 155.92 81.1093 157.883 78.976C159.846 76.8427 160.827 73.856 160.827 70.016ZM271.763 69.376C271.763 71.3387 271.635 73.216 271.379 75.008H225.683C226.11 81.2373 228.712 84.352 233.491 84.352C236.563 84.352 238.782 82.944 240.147 80.128H270.227C269.203 85.248 267.027 89.856 263.699 93.952C260.456 97.9627 256.318 101.163 251.283 103.552C246.334 105.856 240.872 107.008 234.899 107.008C227.731 107.008 221.331 105.515 215.699 102.528C210.152 99.5413 205.8 95.2747 202.643 89.728C199.571 84.096 198.035 77.5253 198.035 70.016C198.035 62.5067 199.571 55.9787 202.643 50.432C205.8 44.8 210.152 40.4907 215.699 37.504C221.331 34.5173 227.731 33.024 234.899 33.024C242.067 33.024 248.424 34.5173 253.971 37.504C259.603 40.4053 263.955 44.5867 267.027 50.048C270.184 55.5093 271.763 61.952 271.763 69.376ZM242.963 62.592C242.963 60.2027 242.195 58.4107 240.659 57.216C239.123 55.936 237.203 55.296 234.899 55.296C229.864 55.296 226.92 57.728 226.067 62.592H242.963ZM309.166 11.392V106.112H280.75V11.392H309.166ZM336.336 28.16C331.387 28.16 327.419 26.8373 324.432 24.192C321.445 21.5467 319.952 18.2187 319.952 14.208C319.952 10.112 321.445 6.74133 324.432 4.09599C327.419 1.36533 331.387 -7.62939e-06 336.336 -7.62939e-06C341.2 -7.62939e-06 345.125 1.36533 348.112 4.09599C351.099 6.74133 352.592 10.112 352.592 14.208C352.592 18.2187 351.099 21.5467 348.112 24.192C345.125 26.8373 341.2 28.16 336.336 28.16ZM350.416 33.92V106.112H322V33.92H350.416ZM408.178 81.92V106.112H397.426C377.629 106.112 367.73 96.256 367.73 76.544V57.6H358.77V33.92H367.73V16.512H396.146V33.92H407.922V57.6H396.146V77.056C396.146 78.7627 396.53 80 397.298 80.768C398.151 81.536 399.517 81.92 401.394 81.92H408.178ZM500.536 33.92L454.328 140.672H423.224L441.4 102.528L411.32 33.92H442.936L456.504 70.528L469.176 33.92H500.536ZM563.353 106.112L546.713 82.56L532.889 106.112H500.505L530.329 59.392L499.225 15.488H532.889L548.889 38.144L562.201 15.488H594.585L565.273 61.312L597.017 106.112H563.353ZM617.455 107.136C612.506 107.136 608.538 105.813 605.551 103.168C602.564 100.523 601.071 97.1947 601.071 93.184C601.071 89.088 602.564 85.7173 605.551 83.072C608.538 80.3413 612.506 78.976 617.455 78.976C622.319 78.976 626.244 80.3413 629.231 83.072C632.218 85.7173 633.711 89.088 633.711 93.184C633.711 97.1947 632.218 100.523 629.231 103.168C626.244 105.813 622.319 107.136 617.455 107.136Z" fill="white"/>
</svg>
